<svg width="20" height="25" viewBox="0 0 20 25" fill="none" xmlns="http://www.w3.org/2000/svg">
<path d="M18.6461 0.0139589L6.25777 2.41691C6.00034 2.43787 5.79509 2.64056 5.7709 2.8977V17.3235C5.77484 17.5653 5.72578 17.8051 5.62717 18.026C5.41935 18.3993 5.07097 18.6741 4.65951 18.7892C4.45707 18.855 4.19086 18.9157 3.87202 18.9916C2.42458 19.3165 0.00240172 19.8692 0.00240172 22.1041C-0.0584628 23.5716 1.04456 24.8279 2.50758 24.9575C2.6484 24.982 2.79082 24.9963 2.93372 25C4.00436 24.9608 5.05379 24.6901 6.00978 24.2064C6.96691 23.5732 7.51752 22.4809 7.45722 21.3349V8.56296C7.45679 8.33484 7.61803 8.13838 7.84185 8.09431L16.9739 6.25009C17.1149 6.22131 17.2615 6.25722 17.3732 6.34798C17.485 6.43875 17.5501 6.5748 17.5509 6.71874V14.5835C17.5672 14.8616 17.5157 15.1394 17.4011 15.3933C17.1921 15.7682 16.8412 16.0432 16.4273 16.1565C16.2249 16.2223 15.899 16.283 15.5801 16.3589C14.1327 16.6838 11.7105 17.2304 11.7105 19.4653C11.6306 20.9501 12.7433 22.2303 14.2248 22.3582C14.6142 22.3862 15.0056 22.3682 15.3908 22.3045C16.161 22.1704 16.9028 21.9061 17.5843 21.5231C18.6395 20.9492 19.2792 19.8277 19.2362 18.6272V0.476532C19.2364 0.33008 19.1692 0.191676 19.0539 0.101326C18.9387 0.0109747 18.7882 -0.0212524 18.6461 0.0139589Z" fill="white"/>
</svg>
