<svg width="14" height="14" viewBox="0 0 14 14" fill="none" xmlns="http://www.w3.org/2000/svg">
<path d="M8.63989 6.99996L13.5937 2.0461C13.9985 1.58614 13.9758 0.890761 13.5419 0.458225C13.1079 0.0256882 12.4125 0.00514894 11.9539 0.411325L6.99996 5.36518L2.0461 0.411325C1.7636 0.0770273 1.31699 -0.0698114 0.891235 0.0316178C0.465475 0.133047 0.133047 0.465475 0.0316178 0.891235C-0.0698114 1.31699 0.0770273 1.7636 0.411325 2.0461L5.36518 6.99996L0.411325 11.9539C0.0220979 12.4144 0.0506853 13.0965 0.477093 13.5228C0.9035 13.9492 1.5855 13.9778 2.0461 13.5885L6.99996 8.63473L11.9539 13.5885C12.2363 13.9229 12.6829 14.0697 13.1086 13.9683C13.5345 13.8669 13.8669 13.5345 13.9683 13.1086C14.0697 12.6829 13.9229 12.2363 13.5885 11.9539L8.63989 6.99996Z" fill="white"/>
</svg>
