<svg width="24" height="24" viewBox="0 0 24 24" fill="none" xmlns="http://www.w3.org/2000/svg">
<path d="M8.34179 19.2023H9.59537H8.34179ZM8.34179 3.8425L8.13574 2.60597L7.08822 2.78054V3.8425H8.34179ZM22.5202 1.47976H23.7738V0L22.3141 0.243234L22.5202 1.47976ZM21.2667 16.8396C21.2667 17.5319 21.8279 18.0931 22.5202 18.0931C23.2126 18.0931 23.7738 17.5319 23.7738 16.8396H21.2667ZM4.79668 15.6582L4.79633 14.4046L4.79668 15.6582ZM22.5202 16.8386H21.2667H22.5202ZM18.9751 13.2945L18.9747 12.0409L18.9751 13.2945ZM9.59537 19.2023V3.8425H7.08822V19.2023H9.59537ZM8.54785 5.07903L22.7263 2.71629L22.3141 0.243234L8.13574 2.60597L8.54785 5.07903ZM21.2667 1.47976V16.8396H23.7738V1.47976H21.2667ZM7.08822 19.2023C7.08822 20.4672 6.06284 21.4927 4.79791 21.4928L4.79814 24C7.44764 23.9998 9.59537 21.8519 9.59537 19.2023H7.08822ZM4.79791 21.4928C3.53296 21.4929 2.50739 20.4677 2.50715 19.2027L8.78006e-08 19.2032C0.000501518 21.8528 2.14863 24.0003 4.79814 24L4.79791 21.4928ZM2.50715 19.2027C2.50691 17.9378 3.53209 16.9122 4.79703 16.9118L4.79633 14.4046C2.14682 14.4053 -0.000501343 16.5537 8.78006e-08 19.2032L2.50715 19.2027ZM4.79703 16.9118C5.40464 16.9116 5.98741 17.1529 6.4171 17.5824L8.18968 15.8093C7.28964 14.9096 6.06899 14.4042 4.79633 14.4046L4.79703 16.9118ZM6.4171 17.5824C6.84681 18.012 7.08822 18.5947 7.08822 19.2023H9.59537C9.59537 17.9297 9.08972 16.7091 8.18968 15.8093L6.4171 17.5824ZM21.2667 16.8386C21.2667 18.1035 20.2412 19.129 18.9763 19.1291L18.9766 21.6363C21.6261 21.636 23.7738 19.4881 23.7738 16.8386H21.2667ZM18.9763 19.1291C17.7114 19.1292 16.6858 18.104 16.6856 16.839L14.1784 16.8395C14.1789 19.489 16.3271 21.6365 18.9766 21.6363L18.9763 19.1291ZM16.6856 16.839C16.6854 15.5741 17.7105 14.5484 18.9755 14.548L18.9747 12.0409C16.3253 12.0416 14.1779 14.1899 14.1784 16.8395L16.6856 16.839ZM18.9755 14.548C19.5831 14.5478 20.1658 14.7891 20.5955 15.2186L22.3681 13.4456C21.4681 12.5458 20.2475 12.0405 18.9747 12.0409L18.9755 14.548ZM20.5955 15.2186C21.0253 15.6483 21.2667 16.2309 21.2667 16.8386H23.7738C23.7738 15.5659 23.2682 14.3454 22.3681 13.4456L20.5955 15.2186Z" fill="#8A8A8A"/>
</svg>
