<svg width="24" height="24" viewBox="0 0 24 24" fill="none" xmlns="http://www.w3.org/2000/svg">
<path d="M8.3418 19.2023H9.59538H8.3418ZM8.3418 3.8425L8.13574 2.60598L7.08823 2.78054V3.8425H8.3418ZM22.5203 1.47976H23.7738V0L22.3142 0.243234L22.5203 1.47976ZM21.2667 16.8396C21.2667 17.532 21.8279 18.0932 22.5203 18.0932C23.2126 18.0932 23.7738 17.532 23.7738 16.8396H21.2667ZM4.79669 15.6582L4.79634 14.4046L4.79669 15.6582ZM22.5203 16.8386H21.2667H22.5203ZM18.9751 13.2945L18.9747 12.0409L18.9751 13.2945ZM9.59538 19.2023V3.8425H7.08823V19.2023H9.59538ZM8.54786 5.07903L22.7263 2.71629L22.3142 0.243234L8.13574 2.60598L8.54786 5.07903ZM21.2667 1.47976V16.8396H23.7738V1.47976H21.2667ZM7.08823 19.2023C7.08823 20.4672 6.06285 21.4928 4.79791 21.4929L4.79814 24C7.44765 23.9998 9.59538 21.8519 9.59538 19.2023H7.08823ZM4.79791 21.4929C3.53296 21.493 2.50739 20.4677 2.50715 19.2027L8.78007e-08 19.2032C0.000501519 21.8528 2.14863 24.0003 4.79814 24L4.79791 21.4929ZM2.50715 19.2027C2.50691 17.9378 3.5321 16.9122 4.79704 16.9118L4.79634 14.4046C2.14682 14.4053 -0.000501343 16.5537 8.78007e-08 19.2032L2.50715 19.2027ZM4.79704 16.9118C5.40464 16.9116 5.98741 17.1529 6.41711 17.5824L8.18969 15.8094C7.28965 14.9096 6.069 14.4042 4.79634 14.4046L4.79704 16.9118ZM6.41711 17.5824C6.84682 18.012 7.08823 18.5947 7.08823 19.2023H9.59538C9.59538 17.9297 9.08973 16.7091 8.18969 15.8094L6.41711 17.5824ZM21.2667 16.8386C21.2667 18.1035 20.2413 19.129 18.9763 19.1291L18.9766 21.6363C21.6261 21.636 23.7738 19.4881 23.7738 16.8386H21.2667ZM18.9763 19.1291C17.7114 19.1292 16.6858 18.104 16.6856 16.839L14.1785 16.8395C14.179 19.489 16.3271 21.6365 18.9766 21.6363L18.9763 19.1291ZM16.6856 16.839C16.6854 15.5741 17.7105 14.5485 18.9755 14.5481L18.9747 12.0409C16.3253 12.0416 14.178 14.1899 14.1785 16.8395L16.6856 16.839ZM18.9755 14.5481C19.5831 14.5479 20.1658 14.7891 20.5956 15.2187L22.3681 13.4456C21.4682 12.5458 20.2475 12.0405 18.9747 12.0409L18.9755 14.5481ZM20.5956 15.2187C21.0253 15.6483 21.2667 16.231 21.2667 16.8386H23.7738C23.7738 15.566 23.2682 14.3454 22.3681 13.4456L20.5956 15.2187Z" fill="white"/>
</svg>
