<svg width="21" height="21" viewBox="0 0 21 21" fill="none" xmlns="http://www.w3.org/2000/svg">
<path d="M15.5586 15.5596L16.4498 14.6669L15.5566 13.7753L14.6655 14.669L15.5586 15.5596ZM9.63711 18.0128L9.63873 16.7514H9.63711V18.0128ZM18.0128 9.63711H16.7514V9.63894L18.0128 9.63711ZM15.5607 15.5607L14.6696 14.6678L13.7751 15.5605L14.6694 16.4533L15.5607 15.5607ZM20.1088 20.1017L19.2176 20.9945L21 19.209L20.1088 20.1017ZM14.6655 14.669C13.3337 16.0044 11.5247 16.7538 9.63873 16.7514L9.63549 19.2742C12.1928 19.2776 14.646 18.2612 16.4518 16.4503L14.6655 14.669ZM9.63711 16.7514C5.70798 16.7514 2.5228 13.5662 2.5228 9.63711H0C0 14.9595 4.31468 19.2742 9.63711 19.2742V16.7514ZM2.5228 9.63711C2.5228 5.70798 5.70798 2.5228 9.63711 2.5228V0C4.31468 0 0 4.31468 0 9.63711H2.5228ZM9.63711 2.5228C13.5662 2.5228 16.7514 5.70798 16.7514 9.63711H19.2742C19.2742 4.31468 14.9595 0 9.63711 0V2.5228ZM16.7514 9.63894C16.7541 11.5254 16.005 13.3352 14.6696 14.6678L16.4517 16.4535C18.2622 14.6468 19.278 12.193 19.2742 9.63528L16.7514 9.63894ZM14.6694 16.4533L19.2175 20.9944L21 19.209L16.4519 14.668L14.6694 16.4533ZM20.9999 19.2089L16.4498 14.6669L14.6675 16.4524L19.2176 20.9945L20.9999 19.2089Z" fill="#8A8A8A"/>
</svg>
