<svg width="22" height="25" viewBox="0 0 22 25" fill="none" xmlns="http://www.w3.org/2000/svg">
<path d="M1.27397 9.17827L0.491852 8.17263L0 8.55517V9.17827H1.27397ZM11 1.61392L11.7821 0.60829L11 0L10.2179 0.60829L11 1.61392ZM20.726 9.17827H22V8.55517L21.5081 8.17263L20.726 9.17827ZM3.43565 23.2277V24.5016V23.2277ZM1.27397 21.066H0H1.27397ZM6.48402 23.2236C6.48402 23.9272 7.05439 24.4976 7.75799 24.4976C8.46159 24.4976 9.03197 23.9272 9.03197 23.2236H6.48402ZM7.75799 12.4203V11.1463H6.48402V12.4203H7.75799ZM14.242 12.4203H15.516V11.1463H14.242V12.4203ZM12.968 23.2236C12.968 23.9272 13.5384 24.4976 14.242 24.4976C14.9457 24.4976 15.516 23.9272 15.516 23.2236H12.968ZM2.0561 10.1839L11.7821 2.61955L10.2179 0.60829L0.491852 8.17263L2.0561 10.1839ZM10.2179 2.61955L19.9439 10.1839L21.5081 8.17263L11.7821 0.60829L10.2179 2.61955ZM19.4521 9.17827V21.066H22V9.17827H19.4521ZM19.4521 21.066C19.4521 21.5562 19.0546 21.9537 18.5643 21.9537V24.5016C20.4619 24.5016 22 22.9635 22 21.066H19.4521ZM18.5643 21.9537H3.43565V24.5016H18.5643V21.9537ZM3.43565 21.9537C2.94539 21.9537 2.54795 21.5562 2.54795 21.066H0C0 22.9635 1.53819 24.5016 3.43565 24.5016V21.9537ZM2.54795 21.066V9.17827H0V21.066H2.54795ZM9.03197 23.2236V12.4203H6.48402V23.2236H9.03197ZM7.75799 13.6943H14.242V11.1463H7.75799V13.6943ZM12.968 12.4203V23.2236H15.516V12.4203H12.968Z" fill="#8A8A8A"/>
</svg>
