<svg width="26" height="25" viewBox="0 0 26 25" fill="none" xmlns="http://www.w3.org/2000/svg">
<path d="M0.246395 1.48078L1.78187 3.01625C0.619502 4.33037 -0.0151557 6.02832 0.000274902 7.78269C0.000274902 12.6656 4.34335 16.5853 10.9218 22.6289L12.7834 24.2931L14.6379 22.6219C15.903 21.4611 17.089 20.3733 18.1697 19.3484L23.8345 25L25.3082 23.5263L1.73224 0L0.246395 1.48078Z" fill="white"/>
<path d="M25.5593 7.77659C25.5925 5.899 24.8643 4.08794 23.5404 2.75607C22.2166 1.42421 20.4099 0.685019 18.5322 0.706942C16.3127 0.717753 14.21 1.70369 12.7823 3.40313C11.3548 1.70396 9.25261 0.71805 7.0334 0.706942C6.53183 0.707593 6.03162 0.759175 5.54047 0.860894L21.1281 16.406C23.9185 13.4161 25.5593 10.7807 25.5593 7.77659Z" fill="white"/>
</svg>
