<svg width="22" height="25" viewBox="0 0 22 25" fill="none" xmlns="http://www.w3.org/2000/svg">
<path d="M10.9868 0C7.34583 0 4.39428 2.95155 4.39428 6.59248C4.39428 10.2334 7.34583 13.185 10.9868 13.185C14.6277 13.185 17.5792 10.2334 17.5792 6.59248C17.5753 2.95317 14.626 0.00390634 10.9868 0Z" fill="white"/>
<path d="M19.1892 17.4912C17.4197 15.6736 14.9906 14.6486 12.4539 14.6491H9.51765C6.98028 14.648 4.55033 15.6731 2.78038 17.4912C0.994975 19.2943 -0.00455467 21.7305 1.56042e-05 24.268C1.56042e-05 24.6723 0.327765 25 0.732063 25H21.2415C21.6458 25 21.9736 24.6723 21.9736 24.268C21.9771 21.7299 20.9761 19.2936 19.1892 17.4912Z" fill="white"/>
</svg>
