<svg width="24" height="24" viewBox="0 0 24 24" fill="none" xmlns="http://www.w3.org/2000/svg">
<path d="M24 15.6196C24 14.99 23.4896 14.4795 22.8599 14.4795C22.2302 14.4795 21.7198 14.99 21.7198 15.6196H24ZM2.28024 15.6196C2.28024 14.99 1.76979 14.4795 1.14012 14.4795C0.51045 14.4795 0 14.99 0 15.6196H2.28024ZM21.7198 15.6196V20.4465H24V15.6196H21.7198ZM21.7198 20.4465C21.7198 21.1497 21.1497 21.7198 20.4465 21.7198V24C22.409 24 24 22.409 24 20.4465H21.7198ZM20.4465 21.7198H3.55353V24H20.4465V21.7198ZM3.55353 21.7198C2.85031 21.7198 2.28024 21.1497 2.28024 20.4465H0C0 22.409 1.59097 24 3.55353 24V21.7198ZM2.28024 20.4465V15.6196H0V20.4465H2.28024Z" fill="white"/>
<path d="M6.77311 8.77994C6.32786 8.33469 5.60598 8.33469 5.16073 8.77994C4.71548 9.22518 4.71548 9.94707 5.16073 10.3923L6.77311 8.77994ZM12.0004 15.6196L11.1943 16.4258C11.4081 16.6397 11.6981 16.7598 12.0005 16.7598C12.3029 16.7598 12.5929 16.6396 12.8067 16.4258L12.0004 15.6196ZM18.8393 10.3923C19.2845 9.94697 19.2845 9.22509 18.8392 8.77987C18.3939 8.33466 17.672 8.33472 17.2268 8.78L18.8393 10.3923ZM5.16073 10.3923L11.1943 16.4258L12.8066 14.8135L6.77311 8.77994L5.16073 10.3923ZM12.8067 16.4258L18.8393 10.3923L17.2268 8.78L11.1942 14.8135L12.8067 16.4258Z" fill="white"/>
<path d="M10.4033 15.6197C10.4033 16.2494 10.9138 16.7598 11.5435 16.7598C12.1731 16.7598 12.6836 16.2494 12.6836 15.6197H10.4033ZM12.6836 1.14012C12.6836 0.51045 12.1731 0 11.5435 0C10.9138 0 10.4033 0.51045 10.4033 1.14012H12.6836ZM12.6836 15.6197V1.14012H10.4033V15.6197H12.6836Z" fill="white"/>
</svg>
